<svg width="24" height="24" viewBox="0 0 24 24" xmlns="http://www.w3.org/2000/svg"><path d="M11.984.077C5.4.077.061 5.415.061 12c0 5.051 3.143 9.366 7.578 11.103-.104-.943-.198-2.39.042-3.42.216-.93 1.398-5.927 1.398-5.927s-.357-.714-.357-1.77c0-1.658.961-2.896 2.158-2.896 1.017 0 1.508.764 1.508 1.68 0 1.023-.651 2.552-.987 3.97-.281 1.187.595 2.154 1.765 2.154 2.12 0 3.748-2.234 3.748-5.46 0-2.855-2.05-4.85-4.98-4.85-3.393 0-5.384 2.544-5.384 5.174 0 1.025.395 2.123.887 2.72a.356.356 0 0 1 .083.343c-.09.376-.292 1.186-.33 1.352-.053.218-.174.264-.4.16-1.489-.694-2.42-2.871-2.42-4.62 0-3.76 2.733-7.215 7.878-7.215 4.136 0 7.35 2.947 7.35 6.886 0 4.11-2.59 7.417-6.186 7.417-1.209 0-2.344-.628-2.733-1.37 0 0-.598 2.277-.743 2.835-.27 1.036-.996 2.334-1.482 3.126a11.92 11.92 0 0 0 3.53.532c6.586 0 11.924-5.339 11.924-11.924C23.908 5.415 18.57.077 11.984.077l7.387 3.495" fill-rule="evenodd"/></svg>
